<?xml version="1.0" encoding="UTF-8" standalone="no"?>
<!DOCTYPE svg PUBLIC "-//W3C//DTD SVG 1.1//EN"
 "http://www.w3.org/Graphics/SVG/1.1/DTD/svg11.dtd">
<!-- Generated by graphviz version 12.2.1 (20241206.2353)
 -->
<!-- Title: G Pages: 1 -->
<svg width="1207pt" height="1355pt"
 viewBox="0.00 0.00 1206.54 1354.87" xmlns="http://www.w3.org/2000/svg" xmlns:xlink="http://www.w3.org/1999/xlink">
<g id="graph0" class="graph" transform="scale(1 1) rotate(0) translate(4 1350.87)">
<title>G</title><style>.edge>path:hover{stroke-width:8}</style>
<polygon fill="white" stroke="none" points="-4,4 -4,-1350.87 1202.54,-1350.87 1202.54,4 -4,4"/>
<!-- quien_es_quien_controller -->
<g id="node1" class="node">
<title>quien_es_quien_controller</title><style>.edge>path:hover{stroke-width:8}</style>
<ellipse fill="#e72222" stroke="black" cx="828.56" cy="-735.66" rx="61.16" ry="22.63"/>
<text text-anchor="middle" x="828.56" y="-738.16" font-family="Helvetica,sans-Serif" font-size="10.00" fill="#ffffff">quien_es_quien.</text>
<text text-anchor="middle" x="828.56" y="-726.16" font-family="Helvetica,sans-Serif" font-size="10.00" fill="#ffffff">controller</text>
</g>
<!-- quien_es_quien_view_components_area_texto -->
<g id="node14" class="node">
<title>quien_es_quien_view_components_area_texto</title><style>.edge>path:hover{stroke-width:8}</style>
<ellipse fill="#913030" stroke="black" cx="806.56" cy="-398.56" rx="61.16" ry="39.6"/>
<text text-anchor="middle" x="806.56" y="-413.06" font-family="Helvetica,sans-Serif" font-size="10.00" fill="#ffffff">quien_es_quien.</text>
<text text-anchor="middle" x="806.56" y="-401.06" font-family="Helvetica,sans-Serif" font-size="10.00" fill="#ffffff">view.</text>
<text text-anchor="middle" x="806.56" y="-389.06" font-family="Helvetica,sans-Serif" font-size="10.00" fill="#ffffff">components.</text>
<text text-anchor="middle" x="806.56" y="-377.06" font-family="Helvetica,sans-Serif" font-size="10.00" fill="#ffffff">area_texto</text>
</g>
<!-- quien_es_quien_controller&#45;&gt;quien_es_quien_view_components_area_texto -->
<g id="edge1" class="edge">
<title>quien_es_quien_controller&#45;&gt;quien_es_quien_view_components_area_texto</title><style>.edge>path:hover{stroke-width:8}</style>
<path fill="none" stroke="black" d="M742.56,-512.75C744.67,-487.62 757.13,-462.87 770.5,-442.95"/>
<polygon fill="#e72222" stroke="black" points="773.33,-445.01 776.22,-434.81 767.6,-440.98 773.33,-445.01"/>
</g>
<!-- quien_es_quien_view_components_grid_personajes -->
<g id="node16" class="node">
<title>quien_es_quien_view_components_grid_personajes</title><style>.edge>path:hover{stroke-width:8}</style>
<ellipse fill="#913030" stroke="black" cx="628.56" cy="-398.56" rx="61.16" ry="39.6"/>
<text text-anchor="middle" x="628.56" y="-413.06" font-family="Helvetica,sans-Serif" font-size="10.00" fill="#ffffff">quien_es_quien.</text>
<text text-anchor="middle" x="628.56" y="-401.06" font-family="Helvetica,sans-Serif" font-size="10.00" fill="#ffffff">view.</text>
<text text-anchor="middle" x="628.56" y="-389.06" font-family="Helvetica,sans-Serif" font-size="10.00" fill="#ffffff">components.</text>
<text text-anchor="middle" x="628.56" y="-377.06" font-family="Helvetica,sans-Serif" font-size="10.00" fill="#ffffff">grid_personajes</text>
</g>
<!-- quien_es_quien_controller&#45;&gt;quien_es_quien_view_components_grid_personajes -->
<g id="edge2" class="edge">
<title>quien_es_quien_controller&#45;&gt;quien_es_quien_view_components_grid_personajes</title><style>.edge>path:hover{stroke-width:8}</style>
<path fill="none" stroke="black" d="M793.33,-716.89C735.45,-684.88 626.73,-611.76 628.56,-514.75"/>
</g>
<!-- quien_es_quien_view_tablero_personajes -->
<g id="node21" class="node">
<title>quien_es_quien_view_tablero_personajes</title><style>.edge>path:hover{stroke-width:8}</style>
<ellipse fill="#732626" stroke="black" cx="277.56" cy="-193.62" rx="69.12" ry="31.11"/>
<text text-anchor="middle" x="277.56" y="-202.12" font-family="Helvetica,sans-Serif" font-size="10.00" fill="#ffffff">quien_es_quien.</text>
<text text-anchor="middle" x="277.56" y="-190.12" font-family="Helvetica,sans-Serif" font-size="10.00" fill="#ffffff">view.</text>
<text text-anchor="middle" x="277.56" y="-178.12" font-family="Helvetica,sans-Serif" font-size="10.00" fill="#ffffff">tablero_personajes</text>
</g>
<!-- quien_es_quien_controller&#45;&gt;quien_es_quien_view_tablero_personajes -->
<g id="edge3" class="edge">
<title>quien_es_quien_controller&#45;&gt;quien_es_quien_view_tablero_personajes</title><style>.edge>path:hover{stroke-width:8}</style>
<path fill="none" stroke="black" d="M742.56,-512.75C746.87,-461.41 689.99,-443.08 717.56,-399.56"/>
<path fill="none" stroke="black" d="M812.85,-713.52C786.3,-675.47 736.05,-592.16 742.56,-514.75"/>
</g>
<!-- quien_es_quien_controller_elegir_personaje -->
<g id="node2" class="node">
<title>quien_es_quien_controller_elegir_personaje</title><style>.edge>path:hover{stroke-width:8}</style>
<ellipse fill="#bf2121" stroke="black" cx="550.56" cy="-842.37" rx="61.16" ry="31.11"/>
<text text-anchor="middle" x="550.56" y="-850.87" font-family="Helvetica,sans-Serif" font-size="10.00" fill="#ffffff">quien_es_quien.</text>
<text text-anchor="middle" x="550.56" y="-838.87" font-family="Helvetica,sans-Serif" font-size="10.00" fill="#ffffff">controller.</text>
<text text-anchor="middle" x="550.56" y="-826.87" font-family="Helvetica,sans-Serif" font-size="10.00" fill="#ffffff">elegir_personaje</text>
</g>
<!-- quien_es_quien_controller_pregunta_respuesta -->
<g id="node3" class="node">
<title>quien_es_quien_controller_pregunta_respuesta</title><style>.edge>path:hover{stroke-width:8}</style>
<ellipse fill="#9c1b1b" stroke="black" cx="677.56" cy="-735.66" rx="71.77" ry="31.11"/>
<text text-anchor="middle" x="677.56" y="-744.16" font-family="Helvetica,sans-Serif" font-size="10.00" fill="#ffffff">quien_es_quien.</text>
<text text-anchor="middle" x="677.56" y="-732.16" font-family="Helvetica,sans-Serif" font-size="10.00" fill="#ffffff">controller.</text>
<text text-anchor="middle" x="677.56" y="-720.16" font-family="Helvetica,sans-Serif" font-size="10.00" fill="#ffffff">pregunta_respuesta</text>
</g>
<!-- quien_es_quien_controller_elegir_personaje&#45;&gt;quien_es_quien_controller_pregunta_respuesta -->
<g id="edge4" class="edge">
<title>quien_es_quien_controller_elegir_personaje&#45;&gt;quien_es_quien_controller_pregunta_respuesta</title><style>.edge>path:hover{stroke-width:8}</style>
<path fill="none" stroke="black" d="M581.95,-815.49C598.36,-801.96 618.66,-785.22 636.32,-770.66"/>
<polygon fill="#bf2121" stroke="black" points="638.1,-773.73 643.59,-764.67 633.64,-768.33 638.1,-773.73"/>
</g>
<!-- quien_es_quien_controller_elegir_personaje&#45;&gt;quien_es_quien_view_components_grid_personajes -->
<g id="edge5" class="edge">
<title>quien_es_quien_controller_elegir_personaje&#45;&gt;quien_es_quien_view_components_grid_personajes</title><style>.edge>path:hover{stroke-width:8}</style>
<path fill="none" stroke="black" d="M559.53,-811.39C565.45,-790.59 572.94,-762.15 577.56,-736.66"/>
</g>
<!-- quien_es_quien_controller_elegir_personaje&#45;&gt;quien_es_quien_view_tablero_personajes -->
<g id="edge6" class="edge">
<title>quien_es_quien_controller_elegir_personaje&#45;&gt;quien_es_quien_view_tablero_personajes</title><style>.edge>path:hover{stroke-width:8}</style>
<path fill="none" stroke="black" d="M546.29,-810.86C541.16,-769.72 533.88,-694.2 539.56,-629.95"/>
</g>
<!-- quien_es_quien_controller_pregunta_respuesta&#45;&gt;quien_es_quien_view_components_area_texto -->
<g id="edge7" class="edge">
<title>quien_es_quien_controller_pregunta_respuesta&#45;&gt;quien_es_quien_view_components_area_texto</title><style>.edge>path:hover{stroke-width:8}</style>
<path fill="none" stroke="black" d="M677.67,-704.16C679.09,-653.36 687.31,-549.56 728.56,-474.16 736.15,-460.27 747.23,-447.42 758.67,-436.44"/>
<polygon fill="#9c1b1b" stroke="black" points="760.89,-439.15 765.9,-429.81 756.16,-433.99 760.89,-439.15"/>
</g>
<!-- quien_es_quien_controller_pregunta_respuesta&#45;&gt;quien_es_quien_view_components_grid_personajes -->
<g id="edge8" class="edge">
<title>quien_es_quien_controller_pregunta_respuesta&#45;&gt;quien_es_quien_view_components_grid_personajes</title><style>.edge>path:hover{stroke-width:8}</style>
<path fill="none" stroke="black" d="M658.01,-705.48C645.99,-685.27 632.22,-657.2 628.56,-629.95"/>
<path fill="none" stroke="black" d="M628.56,-627.95C621.86,-578.09 627.61,-565.05 628.56,-514.75"/>
</g>
<!-- quien_es_quien_controller_pregunta_respuesta&#45;&gt;quien_es_quien_view_tablero_personajes -->
<g id="edge9" class="edge">
<title>quien_es_quien_controller_pregunta_respuesta&#45;&gt;quien_es_quien_view_tablero_personajes</title><style>.edge>path:hover{stroke-width:8}</style>
<path fill="none" stroke="black" d="M717.56,-397.56C727.9,-381.48 722.62,-372.05 736.56,-358.96 792.36,-306.59 923.15,-364.23 895.56,-292.85"/>
<path fill="none" stroke="black" d="M628.56,-627.95C626.74,-614.45 710.19,-411.01 717.56,-399.56"/>
</g>
<!-- quien_es_quien_quien_es_quien -->
<g id="node4" class="node">
<title>quien_es_quien_quien_es_quien</title><style>.edge>path:hover{stroke-width:8}</style>
<ellipse fill="#883a3a" stroke="black" cx="91.56" cy="-22.63" rx="61.16" ry="22.63"/>
<text text-anchor="middle" x="91.56" y="-25.13" font-family="Helvetica,sans-Serif" font-size="10.00" fill="#ffffff">quien_es_quien.</text>
<text text-anchor="middle" x="91.56" y="-13.13" font-family="Helvetica,sans-Serif" font-size="10.00" fill="#ffffff">quien_es_quien</text>
</g>
<!-- quien_es_quien_service -->
<g id="node5" class="node">
<title>quien_es_quien_service</title><style>.edge>path:hover{stroke-width:8}</style>
<ellipse fill="#f91010" stroke="black" cx="748.56" cy="-1145.53" rx="61.16" ry="22.63"/>
<text text-anchor="middle" x="748.56" y="-1148.03" font-family="Helvetica,sans-Serif" font-size="10.00" fill="#ffffff">quien_es_quien.</text>
<text text-anchor="middle" x="748.56" y="-1136.03" font-family="Helvetica,sans-Serif" font-size="10.00" fill="#ffffff">service</text>
</g>
<!-- quien_es_quien_service&#45;&gt;quien_es_quien_controller_elegir_personaje -->
<g id="edge10" class="edge">
<title>quien_es_quien_service&#45;&gt;quien_es_quien_controller_elegir_personaje</title><style>.edge>path:hover{stroke-width:8}</style>
<path fill="none" stroke="black" d="M748.56,-1046.31C747.69,-1003.55 767.16,-988.59 748.56,-950.08"/>
<path fill="none" stroke="black" d="M748.56,-948.08C741.67,-933.83 741.95,-927.8 729.56,-917.97 691.24,-887.57 670.53,-901.21 625.56,-881.97 617.79,-878.65 609.71,-874.86 601.86,-870.99"/>
<polygon fill="#f91010" stroke="black" points="603.57,-867.93 593.06,-866.56 600.42,-874.18 603.57,-867.93"/>
</g>
<!-- quien_es_quien_service&#45;&gt;quien_es_quien_controller_pregunta_respuesta -->
<g id="edge11" class="edge">
<title>quien_es_quien_service&#45;&gt;quien_es_quien_controller_pregunta_respuesta</title><style>.edge>path:hover{stroke-width:8}</style>
<path fill="none" stroke="black" d="M677.56,-841.37C666.92,-822.48 666.2,-798.46 668.46,-778.2"/>
<polygon fill="#f91010" stroke="black" points="671.88,-778.97 669.81,-768.58 664.95,-777.99 671.88,-778.97"/>
</g>
<!-- quien_es_quien_test_test_no_existe_xml -->
<g id="node10" class="node">
<title>quien_es_quien_test_test_no_existe_xml</title><style>.edge>path:hover{stroke-width:8}</style>
<ellipse fill="#ac4949" stroke="black" cx="847.56" cy="-949.08" rx="71.24" ry="31.11"/>
<text text-anchor="middle" x="847.56" y="-957.58" font-family="Helvetica,sans-Serif" font-size="10.00" fill="#ffffff">quien_es_quien.</text>
<text text-anchor="middle" x="847.56" y="-945.58" font-family="Helvetica,sans-Serif" font-size="10.00" fill="#ffffff">test.</text>
<text text-anchor="middle" x="847.56" y="-933.58" font-family="Helvetica,sans-Serif" font-size="10.00" fill="#ffffff">test_no_existe_xml</text>
</g>
<!-- quien_es_quien_service&#45;&gt;quien_es_quien_test_test_no_existe_xml -->
<g id="edge12" class="edge">
<title>quien_es_quien_service&#45;&gt;quien_es_quien_test_test_no_existe_xml</title><style>.edge>path:hover{stroke-width:8}</style>
<path fill="none" stroke="black" d="M748.56,-1046.31C747.98,-1018.08 768.89,-995.46 791.63,-979.26"/>
<polygon fill="#f91010" stroke="black" points="793.47,-982.25 799.83,-973.78 789.57,-976.43 793.47,-982.25"/>
</g>
<!-- quien_es_quien_test_test_personaje_random -->
<g id="node11" class="node">
<title>quien_es_quien_test_test_personaje_random</title><style>.edge>path:hover{stroke-width:8}</style>
<ellipse fill="#a44646" stroke="black" cx="637.56" cy="-949.08" rx="82.91" ry="31.11"/>
<text text-anchor="middle" x="637.56" y="-957.58" font-family="Helvetica,sans-Serif" font-size="10.00" fill="#ffffff">quien_es_quien.</text>
<text text-anchor="middle" x="637.56" y="-945.58" font-family="Helvetica,sans-Serif" font-size="10.00" fill="#ffffff">test.</text>
<text text-anchor="middle" x="637.56" y="-933.58" font-family="Helvetica,sans-Serif" font-size="10.00" fill="#ffffff">test_personaje_random</text>
</g>
<!-- quien_es_quien_service&#45;&gt;quien_es_quien_test_test_personaje_random -->
<g id="edge13" class="edge">
<title>quien_es_quien_service&#45;&gt;quien_es_quien_test_test_personaje_random</title><style>.edge>path:hover{stroke-width:8}</style>
<path fill="none" stroke="black" d="M748.56,-1046.31C747.96,-1017.16 725.76,-994.85 701.37,-979.09"/>
<polygon fill="#f91010" stroke="black" points="703.25,-976.14 692.88,-973.95 699.62,-982.12 703.25,-976.14"/>
<path fill="none" stroke="black" d="M748.81,-1122.75C748.98,-1103.24 749.08,-1073.86 748.56,-1048.31"/>
</g>
<!-- quien_es_quien_service&#45;&gt;quien_es_quien_view_components_grid_personajes -->
<g id="edge14" class="edge">
<title>quien_es_quien_service&#45;&gt;quien_es_quien_view_components_grid_personajes</title><style>.edge>path:hover{stroke-width:8}</style>
<path fill="none" stroke="black" d="M677.56,-841.37C645.99,-785.29 566.08,-799.98 577.56,-736.66"/>
<path fill="none" stroke="black" d="M748.56,-948.08C741.67,-933.83 738.31,-931.16 729.56,-917.97 707.21,-884.29 697.38,-878.59 677.56,-843.37"/>
</g>
<!-- quien_es_quien_service_cargar_personajes_desde_xml -->
<g id="node6" class="node">
<title>quien_es_quien_service_cargar_personajes_desde_xml</title><style>.edge>path:hover{stroke-width:8}</style>
<ellipse fill="#f91010" stroke="black" cx="398.56" cy="-1243.76" rx="104.65" ry="31.11"/>
<text text-anchor="middle" x="398.56" y="-1252.26" font-family="Helvetica,sans-Serif" font-size="10.00" fill="#ffffff">quien_es_quien.</text>
<text text-anchor="middle" x="398.56" y="-1240.26" font-family="Helvetica,sans-Serif" font-size="10.00" fill="#ffffff">service.</text>
<text text-anchor="middle" x="398.56" y="-1228.26" font-family="Helvetica,sans-Serif" font-size="10.00" fill="#ffffff">cargar_personajes_desde_xml</text>
</g>
<!-- quien_es_quien_service_cargar_personajes_desde_xml&#45;&gt;quien_es_quien_controller_pregunta_respuesta -->
<g id="edge15" class="edge">
<title>quien_es_quien_service_cargar_personajes_desde_xml&#45;&gt;quien_es_quien_controller_pregunta_respuesta</title><style>.edge>path:hover{stroke-width:8}</style>
<path fill="none" stroke="black" d="M946.56,-1046.31C951.36,-988.85 957.46,-967.27 927.56,-917.97 883.17,-844.77 796.9,-792.35 738.26,-763.27"/>
<polygon fill="#f91010" stroke="black" points="739.9,-760.17 729.37,-758.94 736.84,-766.47 739.9,-760.17"/>
</g>
<!-- quien_es_quien_service_comprobar_atributos_personaje -->
<g id="node7" class="node">
<title>quien_es_quien_service_comprobar_atributos_personaje</title><style>.edge>path:hover{stroke-width:8}</style>
<ellipse fill="#a83838" stroke="black" cx="391.56" cy="-949.08" rx="107.3" ry="31.11"/>
<text text-anchor="middle" x="391.56" y="-957.58" font-family="Helvetica,sans-Serif" font-size="10.00" fill="#ffffff">quien_es_quien.</text>
<text text-anchor="middle" x="391.56" y="-945.58" font-family="Helvetica,sans-Serif" font-size="10.00" fill="#ffffff">service.</text>
<text text-anchor="middle" x="391.56" y="-933.58" font-family="Helvetica,sans-Serif" font-size="10.00" fill="#ffffff">comprobar_atributos_personaje</text>
</g>
<!-- quien_es_quien_service_cargar_personajes_desde_xml&#45;&gt;quien_es_quien_service_comprobar_atributos_personaje -->
<g id="edge16" class="edge">
<title>quien_es_quien_service_cargar_personajes_desde_xml&#45;&gt;quien_es_quien_service_comprobar_atributos_personaje</title><style>.edge>path:hover{stroke-width:8}</style>
<path fill="none" stroke="black" d="M294.56,-1144.53C285.17,-1087.64 285.54,-1066.59 313.56,-1016.2 320.03,-1004.56 329.4,-994.07 339.42,-985.05"/>
<polygon fill="#f91010" stroke="black" points="341.42,-987.94 346.78,-978.8 336.89,-982.6 341.42,-987.94"/>
<path fill="none" stroke="black" d="M347.45,-1216.25C323.44,-1200.02 299.08,-1176.57 294.56,-1146.53"/>
</g>
<!-- quien_es_quien_service_personaje_a_adivinar -->
<g id="node8" class="node">
<title>quien_es_quien_service_personaje_a_adivinar</title><style>.edge>path:hover{stroke-width:8}</style>
<ellipse fill="#b62020" stroke="black" cx="398.56" cy="-1047.31" rx="76.01" ry="31.11"/>
<text text-anchor="middle" x="398.56" y="-1055.81" font-family="Helvetica,sans-Serif" font-size="10.00" fill="#ffffff">quien_es_quien.</text>
<text text-anchor="middle" x="398.56" y="-1043.81" font-family="Helvetica,sans-Serif" font-size="10.00" fill="#ffffff">service.</text>
<text text-anchor="middle" x="398.56" y="-1031.81" font-family="Helvetica,sans-Serif" font-size="10.00" fill="#ffffff">personaje_a_adivinar</text>
</g>
<!-- quien_es_quien_service_cargar_personajes_desde_xml&#45;&gt;quien_es_quien_service_personaje_a_adivinar -->
<g id="edge17" class="edge">
<title>quien_es_quien_service_cargar_personajes_desde_xml&#45;&gt;quien_es_quien_service_personaje_a_adivinar</title><style>.edge>path:hover{stroke-width:8}</style>
<path fill="none" stroke="black" d="M294.56,-1144.53C289.76,-1115.48 312.19,-1092.56 337.43,-1076.38"/>
<polygon fill="#f91010" stroke="black" points="339.13,-1079.45 345.9,-1071.3 335.52,-1073.45 339.13,-1079.45"/>
</g>
<!-- quien_es_quien_service_personaje_random -->
<g id="node9" class="node">
<title>quien_es_quien_service_personaje_random</title><style>.edge>path:hover{stroke-width:8}</style>
<ellipse fill="#cc3333" stroke="black" cx="398.56" cy="-1145.53" rx="67.53" ry="31.11"/>
<text text-anchor="middle" x="398.56" y="-1154.03" font-family="Helvetica,sans-Serif" font-size="10.00" fill="#ffffff">quien_es_quien.</text>
<text text-anchor="middle" x="398.56" y="-1142.03" font-family="Helvetica,sans-Serif" font-size="10.00" fill="#ffffff">service.</text>
<text text-anchor="middle" x="398.56" y="-1130.03" font-family="Helvetica,sans-Serif" font-size="10.00" fill="#ffffff">personaje_random</text>
</g>
<!-- quien_es_quien_service_cargar_personajes_desde_xml&#45;&gt;quien_es_quien_service_personaje_random -->
<g id="edge18" class="edge">
<title>quien_es_quien_service_cargar_personajes_desde_xml&#45;&gt;quien_es_quien_service_personaje_random</title><style>.edge>path:hover{stroke-width:8}</style>
<path fill="none" stroke="black" d="M398.56,-1212.31C398.56,-1204.77 398.56,-1196.55 398.56,-1188.55"/>
<polygon fill="#f91010" stroke="black" points="402.06,-1188.63 398.56,-1178.63 395.06,-1188.63 402.06,-1188.63"/>
</g>
<!-- quien_es_quien_service_cargar_personajes_desde_xml&#45;&gt;quien_es_quien_test_test_no_existe_xml -->
<g id="edge19" class="edge">
<title>quien_es_quien_service_cargar_personajes_desde_xml&#45;&gt;quien_es_quien_test_test_no_existe_xml</title><style>.edge>path:hover{stroke-width:8}</style>
<path fill="none" stroke="black" d="M946.56,-1046.31C940.21,-1019.6 919.72,-997.52 899.01,-981.29"/>
<polygon fill="#f91010" stroke="black" points="901.18,-978.53 891.07,-975.37 897,-984.15 901.18,-978.53"/>
<path fill="none" stroke="black" d="M498.51,-1234.21C604.55,-1223.89 764.14,-1204.39 818.56,-1176.65 890.33,-1140.06 965.19,-1126.68 946.56,-1048.31"/>
</g>
<!-- quien_es_quien_service_cargar_personajes_desde_xml&#45;&gt;quien_es_quien_test_test_personaje_random -->
<g id="edge20" class="edge">
<title>quien_es_quien_service_cargar_personajes_desde_xml&#45;&gt;quien_es_quien_test_test_personaje_random</title><style>.edge>path:hover{stroke-width:8}</style>
<path fill="none" stroke="black" d="M440.7,-1214.95C453.69,-1204.41 466.85,-1191.35 475.56,-1176.65 505.24,-1126.48 464.37,-1092.35 502.56,-1048.31"/>
</g>
<!-- quien_es_quien_service_cargar_personajes_desde_xml&#45;&gt;quien_es_quien_view_components_grid_personajes -->
<g id="edge21" class="edge">
<title>quien_es_quien_service_cargar_personajes_desde_xml&#45;&gt;quien_es_quien_view_components_grid_personajes</title><style>.edge>path:hover{stroke-width:8}</style>
<path fill="none" stroke="black" d="M333.36,-1218.98C313.65,-1208.79 293.76,-1194.92 280.56,-1176.65 212.51,-1082.45 183.08,-1017.79 242.56,-917.97 264.22,-881.61 570.01,-778.31 577.56,-736.66"/>
<path fill="none" stroke="black" d="M577.56,-734.66C585.76,-688.85 560.32,-673.18 577.56,-629.95"/>
</g>
<!-- quien_es_quien_service_comprobar_atributos_personaje&#45;&gt;quien_es_quien_controller_pregunta_respuesta -->
<g id="edge22" class="edge">
<title>quien_es_quien_service_comprobar_atributos_personaje&#45;&gt;quien_es_quien_controller_pregunta_respuesta</title><style>.edge>path:hover{stroke-width:8}</style>
<path fill="none" stroke="black" d="M472.25,-928.2C533.36,-912.57 608.76,-891.85 620.56,-881.97 635.22,-869.69 627.39,-858.12 639.56,-843.37"/>
<path fill="none" stroke="black" d="M639.56,-841.37C654.5,-823.24 663.82,-798.74 669.49,-777.99"/>
<polygon fill="#a83838" stroke="black" points="672.86,-778.93 671.9,-768.38 666.07,-777.23 672.86,-778.93"/>
</g>
<!-- quien_es_quien_service_personaje_a_adivinar&#45;&gt;quien_es_quien_controller_elegir_personaje -->
<g id="edge23" class="edge">
<title>quien_es_quien_service_personaje_a_adivinar&#45;&gt;quien_es_quien_controller_elegir_personaje</title><style>.edge>path:hover{stroke-width:8}</style>
<path fill="none" stroke="black" d="M333.56,-1030.71C290.46,-1016.39 243.95,-991.07 256.56,-950.08"/>
</g>
<!-- quien_es_quien_service_personaje_a_adivinar&#45;&gt;quien_es_quien_controller_pregunta_respuesta -->
<g id="edge24" class="edge">
<title>quien_es_quien_service_personaje_a_adivinar&#45;&gt;quien_es_quien_controller_pregunta_respuesta</title><style>.edge>path:hover{stroke-width:8}</style>
<path fill="none" stroke="black" d="M447.65,-1023.1C467.77,-1012.01 490.32,-997.38 507.56,-980.2 530.51,-957.32 521.52,-939.7 545.56,-917.97 572.98,-893.17 594.28,-907.98 620.56,-881.97 634.14,-868.52 627.39,-858.12 639.56,-843.37"/>
</g>
<!-- quien_es_quien_service_personaje_a_adivinar&#45;&gt;quien_es_quien_service_comprobar_atributos_personaje -->
<g id="edge25" class="edge">
<title>quien_es_quien_service_personaje_a_adivinar&#45;&gt;quien_es_quien_service_comprobar_atributos_personaje</title><style>.edge>path:hover{stroke-width:8}</style>
<path fill="none" stroke="black" d="M396.34,-1015.86C395.79,-1008.31 395.2,-1000.09 394.61,-992.1"/>
<polygon fill="#b62020" stroke="black" points="398.11,-991.89 393.89,-982.17 391.13,-992.4 398.11,-991.89"/>
</g>
<!-- quien_es_quien_service_personaje_random&#45;&gt;quien_es_quien_service_personaje_a_adivinar -->
<g id="edge26" class="edge">
<title>quien_es_quien_service_personaje_random&#45;&gt;quien_es_quien_service_personaje_a_adivinar</title><style>.edge>path:hover{stroke-width:8}</style>
<path fill="none" stroke="black" d="M398.56,-1114.09C398.56,-1106.54 398.56,-1098.32 398.56,-1090.33"/>
<polygon fill="#cc3333" stroke="black" points="402.06,-1090.4 398.56,-1080.4 395.06,-1090.4 402.06,-1090.4"/>
</g>
<!-- quien_es_quien_service_personaje_random&#45;&gt;quien_es_quien_test_test_personaje_random -->
<g id="edge27" class="edge">
<title>quien_es_quien_service_personaje_random&#45;&gt;quien_es_quien_test_test_personaje_random</title><style>.edge>path:hover{stroke-width:8}</style>
<path fill="none" stroke="black" d="M502.56,-1046.31C524.89,-1020.55 555.46,-998.03 581.86,-981.26"/>
<polygon fill="#cc3333" stroke="black" points="583.45,-984.4 590.09,-976.15 579.75,-978.45 583.45,-984.4"/>
<path fill="none" stroke="black" d="M436.49,-1119.42C452.11,-1108.01 469.75,-1093.66 483.56,-1078.42 494.18,-1066.7 492.19,-1060.26 502.56,-1048.31"/>
</g>
<!-- quien_es_quien_view -->
<g id="node12" class="node">
<title>quien_es_quien_view</title><style>.edge>path:hover{stroke-width:8}</style>
<ellipse fill="#e72222" stroke="black" cx="91.56" cy="-103.88" rx="61.16" ry="22.63"/>
<text text-anchor="middle" x="91.56" y="-106.38" font-family="Helvetica,sans-Serif" font-size="10.00" fill="#ffffff">quien_es_quien.</text>
<text text-anchor="middle" x="91.56" y="-94.38" font-family="Helvetica,sans-Serif" font-size="10.00" fill="#ffffff">view</text>
</g>
<!-- quien_es_quien_view&#45;&gt;quien_es_quien_quien_es_quien -->
<g id="edge28" class="edge">
<title>quien_es_quien_view&#45;&gt;quien_es_quien_quien_es_quien</title><style>.edge>path:hover{stroke-width:8}</style>
<path fill="none" stroke="black" d="M91.56,-80.81C91.56,-73.42 91.56,-65.01 91.56,-56.97"/>
<polygon fill="#e72222" stroke="black" points="95.06,-57.1 91.56,-47.1 88.06,-57.1 95.06,-57.1"/>
</g>
<!-- quien_es_quien_view_components -->
<g id="node13" class="node">
<title>quien_es_quien_view_components</title><style>.edge>path:hover{stroke-width:8}</style>
<ellipse fill="#ce3b3b" stroke="black" cx="269.56" cy="-291.85" rx="61.16" ry="31.11"/>
<text text-anchor="middle" x="269.56" y="-300.35" font-family="Helvetica,sans-Serif" font-size="10.00" fill="#ffffff">quien_es_quien.</text>
<text text-anchor="middle" x="269.56" y="-288.35" font-family="Helvetica,sans-Serif" font-size="10.00" fill="#ffffff">view.</text>
<text text-anchor="middle" x="269.56" y="-276.35" font-family="Helvetica,sans-Serif" font-size="10.00" fill="#ffffff">components</text>
</g>
<!-- quien_es_quien_view_components&#45;&gt;quien_es_quien_quien_es_quien -->
<g id="edge29" class="edge">
<title>quien_es_quien_view_components&#45;&gt;quien_es_quien_quien_es_quien</title><style>.edge>path:hover{stroke-width:8}</style>
<path fill="none" stroke="black" d="M233.05,-266.8C211.44,-249.77 187.04,-224.65 180.56,-194.62"/>
</g>
<!-- quien_es_quien_view_components&#45;&gt;quien_es_quien_view_tablero_personajes -->
<g id="edge30" class="edge">
<title>quien_es_quien_view_components&#45;&gt;quien_es_quien_view_tablero_personajes</title><style>.edge>path:hover{stroke-width:8}</style>
<path fill="none" stroke="black" d="M272.09,-260.4C272.72,-252.85 273.4,-244.63 274.06,-236.64"/>
<polygon fill="#ce3b3b" stroke="black" points="277.55,-236.96 274.89,-226.71 270.57,-236.38 277.55,-236.96"/>
</g>
<!-- quien_es_quien_view_components_area_texto&#45;&gt;quien_es_quien_view_tablero_personajes -->
<g id="edge31" class="edge">
<title>quien_es_quien_view_components_area_texto&#45;&gt;quien_es_quien_view_tablero_personajes</title><style>.edge>path:hover{stroke-width:8}</style>
<path fill="none" stroke="black" d="M852.23,-371.74C879.85,-352.4 907.59,-324.01 895.56,-292.85"/>
</g>
<!-- quien_es_quien_view_components_footer -->
<g id="node15" class="node">
<title>quien_es_quien_view_components_footer</title><style>.edge>path:hover{stroke-width:8}</style>
<ellipse fill="#c04040" stroke="black" cx="91.56" cy="-513.75" rx="61.16" ry="39.6"/>
<text text-anchor="middle" x="91.56" y="-528.25" font-family="Helvetica,sans-Serif" font-size="10.00" fill="#ffffff">quien_es_quien.</text>
<text text-anchor="middle" x="91.56" y="-516.25" font-family="Helvetica,sans-Serif" font-size="10.00" fill="#ffffff">view.</text>
<text text-anchor="middle" x="91.56" y="-504.25" font-family="Helvetica,sans-Serif" font-size="10.00" fill="#ffffff">components.</text>
<text text-anchor="middle" x="91.56" y="-492.25" font-family="Helvetica,sans-Serif" font-size="10.00" fill="#ffffff">footer</text>
</g>
<!-- quien_es_quien_view_components_footer&#45;&gt;quien_es_quien_quien_es_quien -->
<g id="edge32" class="edge">
<title>quien_es_quien_view_components_footer&#45;&gt;quien_es_quien_quien_es_quien</title><style>.edge>path:hover{stroke-width:8}</style>
<path fill="none" stroke="black" d="M180.56,-102.88C172.68,-92.8 170.75,-90.16 161.56,-81.25 150.67,-70.71 138.07,-59.95 126.59,-50.62"/>
<polygon fill="#c04040" stroke="black" points="128.85,-47.95 118.86,-44.43 124.48,-53.41 128.85,-47.95"/>
<path fill="none" stroke="black" d="M129.23,-482.11C150.68,-461.52 174.46,-432.24 180.56,-399.56"/>
<path fill="none" stroke="black" d="M180.56,-397.56C197.09,-308.89 199.6,-282.78 180.56,-194.62"/>
<path fill="none" stroke="black" d="M180.56,-192.62C171.34,-154.73 204.56,-135.61 180.56,-104.88"/>
</g>
<!-- quien_es_quien_view_components_grid_personajes&#45;&gt;quien_es_quien_view_tablero_personajes -->
<g id="edge33" class="edge">
<title>quien_es_quien_view_components_grid_personajes&#45;&gt;quien_es_quien_view_tablero_personajes</title><style>.edge>path:hover{stroke-width:8}</style>
<path fill="none" stroke="black" d="M674.87,-372.41C684.25,-367.69 694.13,-362.98 703.56,-358.96 786.56,-323.53 928.08,-377.04 895.56,-292.85"/>
</g>
<!-- quien_es_quien_view_components_historial_mensajes -->
<g id="node17" class="node">
<title>quien_es_quien_view_components_historial_mensajes</title><style>.edge>path:hover{stroke-width:8}</style>
<ellipse fill="#a13535" stroke="black" cx="992.56" cy="-398.56" rx="68.59" ry="39.6"/>
<text text-anchor="middle" x="992.56" y="-413.06" font-family="Helvetica,sans-Serif" font-size="10.00" fill="#ffffff">quien_es_quien.</text>
<text text-anchor="middle" x="992.56" y="-401.06" font-family="Helvetica,sans-Serif" font-size="10.00" fill="#ffffff">view.</text>
<text text-anchor="middle" x="992.56" y="-389.06" font-family="Helvetica,sans-Serif" font-size="10.00" fill="#ffffff">components.</text>
<text text-anchor="middle" x="992.56" y="-377.06" font-family="Helvetica,sans-Serif" font-size="10.00" fill="#ffffff">historial_mensajes</text>
</g>
<!-- quien_es_quien_view_components_historial_mensajes&#45;&gt;quien_es_quien_view_tablero_personajes -->
<g id="edge34" class="edge">
<title>quien_es_quien_view_components_historial_mensajes&#45;&gt;quien_es_quien_view_tablero_personajes</title><style>.edge>path:hover{stroke-width:8}</style>
<path fill="none" stroke="black" d="M951.62,-366.51C930.48,-347.79 906.81,-321.97 895.56,-292.85"/>
</g>
<!-- quien_es_quien_view_components_menu_principal -->
<g id="node18" class="node">
<title>quien_es_quien_view_components_menu_principal</title><style>.edge>path:hover{stroke-width:8}</style>
<ellipse fill="#c04040" stroke="black" cx="180.56" cy="-842.37" rx="61.16" ry="39.6"/>
<text text-anchor="middle" x="180.56" y="-856.87" font-family="Helvetica,sans-Serif" font-size="10.00" fill="#ffffff">quien_es_quien.</text>
<text text-anchor="middle" x="180.56" y="-844.87" font-family="Helvetica,sans-Serif" font-size="10.00" fill="#ffffff">view.</text>
<text text-anchor="middle" x="180.56" y="-832.87" font-family="Helvetica,sans-Serif" font-size="10.00" fill="#ffffff">components.</text>
<text text-anchor="middle" x="180.56" y="-820.87" font-family="Helvetica,sans-Serif" font-size="10.00" fill="#ffffff">menu_principal</text>
</g>
<!-- quien_es_quien_view_components_menu_principal&#45;&gt;quien_es_quien_quien_es_quien -->
<g id="edge35" class="edge">
<title>quien_es_quien_view_components_menu_principal&#45;&gt;quien_es_quien_quien_es_quien</title><style>.edge>path:hover{stroke-width:8}</style>
<path fill="none" stroke="black" d="M178.17,-802.46C172.82,-709.23 161.78,-475.21 180.56,-399.56"/>
</g>
<!-- quien_es_quien_view_styles -->
<g id="node19" class="node">
<title>quien_es_quien_view_styles</title><style>.edge>path:hover{stroke-width:8}</style>
<ellipse fill="#db2f2f" stroke="black" cx="895.56" cy="-628.95" rx="61.16" ry="31.11"/>
<text text-anchor="middle" x="895.56" y="-637.45" font-family="Helvetica,sans-Serif" font-size="10.00" fill="#ffffff">quien_es_quien.</text>
<text text-anchor="middle" x="895.56" y="-625.45" font-family="Helvetica,sans-Serif" font-size="10.00" fill="#ffffff">view.</text>
<text text-anchor="middle" x="895.56" y="-613.45" font-family="Helvetica,sans-Serif" font-size="10.00" fill="#ffffff">styles</text>
</g>
<!-- quien_es_quien_view_styles&#45;&gt;quien_es_quien_view_components_area_texto -->
<g id="edge36" class="edge">
<title>quien_es_quien_view_styles&#45;&gt;quien_es_quien_view_components_area_texto</title><style>.edge>path:hover{stroke-width:8}</style>
<path fill="none" stroke="black" d="M888.68,-597.87C882.55,-574.31 872.25,-541.21 857.56,-514.75"/>
</g>
<!-- quien_es_quien_view_styles&#45;&gt;quien_es_quien_view_components_historial_mensajes -->
<g id="edge37" class="edge">
<title>quien_es_quien_view_styles&#45;&gt;quien_es_quien_view_components_historial_mensajes</title><style>.edge>path:hover{stroke-width:8}</style>
<path fill="none" stroke="black" d="M895.56,-512.75C901.45,-483.55 921.67,-457.71 942.13,-438.13"/>
<polygon fill="#db2f2f" stroke="black" points="944.44,-440.76 949.45,-431.42 939.71,-435.6 944.44,-440.76"/>
</g>
<!-- quien_es_quien_view_styles&#45;&gt;quien_es_quien_view_tablero_personajes -->
<g id="edge38" class="edge">
<title>quien_es_quien_view_styles&#45;&gt;quien_es_quien_view_tablero_personajes</title><style>.edge>path:hover{stroke-width:8}</style>
<path fill="none" stroke="black" d="M895.56,-512.75C905.23,-464.85 913.17,-338.43 895.56,-292.85"/>
<path fill="none" stroke="black" d="M892.06,-597.78C890.24,-574.75 889.48,-542.39 895.56,-514.75"/>
</g>
<!-- quien_es_quien_view_styles_tablero_personajes_estilos -->
<g id="node20" class="node">
<title>quien_es_quien_view_styles_tablero_personajes_estilos</title><style>.edge>path:hover{stroke-width:8}</style>
<ellipse fill="#d92626" stroke="black" cx="1105.56" cy="-628.95" rx="92.98" ry="39.6"/>
<text text-anchor="middle" x="1105.56" y="-643.45" font-family="Helvetica,sans-Serif" font-size="10.00" fill="#ffffff">quien_es_quien.</text>
<text text-anchor="middle" x="1105.56" y="-631.45" font-family="Helvetica,sans-Serif" font-size="10.00" fill="#ffffff">view.</text>
<text text-anchor="middle" x="1105.56" y="-619.45" font-family="Helvetica,sans-Serif" font-size="10.00" fill="#ffffff">styles.</text>
<text text-anchor="middle" x="1105.56" y="-607.45" font-family="Helvetica,sans-Serif" font-size="10.00" fill="#ffffff">tablero_personajes_estilos</text>
</g>
<!-- quien_es_quien_view_styles_tablero_personajes_estilos&#45;&gt;quien_es_quien_view_components_area_texto -->
<g id="edge39" class="edge">
<title>quien_es_quien_view_styles_tablero_personajes_estilos&#45;&gt;quien_es_quien_view_components_area_texto</title><style>.edge>path:hover{stroke-width:8}</style>
<path fill="none" stroke="black" d="M1031.07,-604.83C964.79,-582.45 875.6,-547.23 857.56,-514.75"/>
</g>
<!-- quien_es_quien_view_styles_tablero_personajes_estilos&#45;&gt;quien_es_quien_view_components_historial_mensajes -->
<g id="edge40" class="edge">
<title>quien_es_quien_view_styles_tablero_personajes_estilos&#45;&gt;quien_es_quien_view_components_historial_mensajes</title><style>.edge>path:hover{stroke-width:8}</style>
<path fill="none" stroke="black" d="M1102.52,-588.94C1100.2,-566.89 1096.21,-538.96 1089.56,-514.75"/>
<path fill="none" stroke="black" d="M1089.56,-512.75C1081.66,-484.02 1061.24,-458.24 1041.17,-438.56"/>
<polygon fill="#d92626" stroke="black" points="1043.7,-436.14 1034.03,-431.82 1038.9,-441.23 1043.7,-436.14"/>
</g>
<!-- quien_es_quien_view_styles_tablero_personajes_estilos&#45;&gt;quien_es_quien_view_tablero_personajes -->
<g id="edge41" class="edge">
<title>quien_es_quien_view_styles_tablero_personajes_estilos&#45;&gt;quien_es_quien_view_tablero_personajes</title><style>.edge>path:hover{stroke-width:8}</style>
<path fill="none" stroke="black" d="M1089.56,-512.75C1071.3,-446.35 1113.12,-413.1 1070.56,-358.96 1019.17,-293.6 925.82,-370.29 895.56,-292.85"/>
</g>
<!-- quien_es_quien_view_tablero_personajes&#45;&gt;quien_es_quien_quien_es_quien -->
<g id="edge42" class="edge">
<title>quien_es_quien_view_tablero_personajes&#45;&gt;quien_es_quien_quien_es_quien</title><style>.edge>path:hover{stroke-width:8}</style>
<path fill="none" stroke="black" d="M242.94,-166.31C223.08,-150.06 198.59,-127.97 180.56,-104.88"/>
</g>
<!-- reflex -->
<g id="node22" class="node">
<title>reflex</title><style>.edge>path:hover{stroke-width:8}</style>
<ellipse fill="#06f9f9" stroke="black" cx="620.56" cy="-1328.87" rx="27" ry="18"/>
<text text-anchor="middle" x="620.56" y="-1325.37" font-family="Helvetica,sans-Serif" font-size="10.00" fill="#000000">reflex</text>
</g>
<!-- reflex&#45;&gt;quien_es_quien_controller_elegir_personaje -->
<g id="edge43" class="edge">
<title>reflex&#45;&gt;quien_es_quien_controller_elegir_personaje</title><style>.edge>path:hover{stroke-width:8}</style>
<path fill="none" stroke="black" d="M256.56,-948.08C261.21,-932.96 262.83,-927.37 275.56,-917.97 284.17,-911.61 406.88,-879.74 485.44,-859.77"/>
<polygon fill="#06f9f9" stroke="black" points="485.92,-863.26 494.75,-857.41 484.19,-856.47 485.92,-863.26"/>
<path fill="none" stroke="black" d="M256.56,-1144.53C283.16,-1062.31 231.15,-1032.69 256.56,-950.08"/>
<path fill="none" stroke="black" d="M256.56,-1242.76C224.28,-1214.7 243.36,-1187.21 256.56,-1146.53"/>
</g>
<!-- reflex&#45;&gt;quien_es_quien_controller_pregunta_respuesta -->
<g id="edge44" class="edge">
<title>reflex&#45;&gt;quien_es_quien_controller_pregunta_respuesta</title><style>.edge>path:hover{stroke-width:8}</style>
<path fill="none" stroke="black" d="M984.56,-841.37C935.56,-747.63 858.41,-801.66 758.56,-766.77 753.12,-764.87 747.49,-762.87 741.85,-760.83"/>
<polygon fill="#06f9f9" stroke="black" points="743.06,-757.54 732.46,-757.4 740.66,-764.12 743.06,-757.54"/>
<path fill="none" stroke="black" d="M647.62,-1326.99C731.98,-1322.65 984.56,-1297.09 984.56,-1146.53 984.56,-1146.53 984.56,-1146.53 984.56,-1046.31 984.56,-956.11 1026.34,-923.3 984.56,-843.37"/>
</g>
<!-- reflex&#45;&gt;quien_es_quien_quien_es_quien -->
<g id="edge45" class="edge">
<title>reflex&#45;&gt;quien_es_quien_quien_es_quien</title><style>.edge>path:hover{stroke-width:8}</style>
<path fill="none" stroke="black" d="M180.56,-948.08C180.86,-905.29 128.96,-920.6 110.56,-881.97 62.25,-780.56 112.14,-740.37 91.56,-629.95"/>
<path fill="none" stroke="black" d="M256.56,-1242.76C155.14,-1154.58 177.88,-1084.45 180.56,-950.08"/>
<path fill="none" stroke="black" d="M593.51,-1325.89C523.55,-1320.39 338.32,-1303.48 284.56,-1274.87 268.42,-1266.29 270.11,-1257.02 256.56,-1244.76"/>
<path fill="none" stroke="black" d="M91.56,-627.95C82.91,-583.32 40.85,-594.52 21.56,-553.35 -7.67,-490.99 2.56,-468.43 2.56,-399.56 2.56,-399.56 2.56,-399.56 2.56,-192.62 2.56,-142.41 -3.63,-124.69 21.56,-81.25 28.78,-68.79 39.79,-57.87 50.95,-48.99"/>
<polygon fill="#06f9f9" stroke="black" points="52.75,-52.01 58.66,-43.22 48.56,-46.41 52.75,-52.01"/>
</g>
<!-- reflex&#45;&gt;quien_es_quien_service_personaje_a_adivinar -->
<g id="edge46" class="edge">
<title>reflex&#45;&gt;quien_es_quien_service_personaje_a_adivinar</title><style>.edge>path:hover{stroke-width:8}</style>
<path fill="none" stroke="black" d="M256.56,-1144.53C267.51,-1110.68 299.18,-1087.46 329.83,-1072.33"/>
<polygon fill="#06f9f9" stroke="black" points="331.21,-1075.55 338.79,-1068.15 328.25,-1069.21 331.21,-1075.55"/>
</g>
<!-- reflex&#45;&gt;quien_es_quien_view_components_area_texto -->
<g id="edge47" class="edge">
<title>reflex&#45;&gt;quien_es_quien_view_components_area_texto</title><style>.edge>path:hover{stroke-width:8}</style>
<path fill="none" stroke="black" d="M984.56,-734.66C977.82,-658.43 868.03,-732.21 825.56,-668.55 806.02,-639.27 818.47,-623.83 825.56,-589.35 832.82,-554.01 875.07,-546.29 857.56,-514.75"/>
<path fill="none" stroke="black" d="M857.56,-512.75C845.74,-492.13 834.64,-468.27 825.83,-447.79"/>
<polygon fill="#06f9f9" stroke="black" points="829.15,-446.66 822.03,-438.81 822.71,-449.39 829.15,-446.66"/>
<path fill="none" stroke="black" d="M984.56,-841.37C960.52,-801.52 987.68,-783.09 984.56,-736.66"/>
</g>
<!-- reflex&#45;&gt;quien_es_quien_view_components_footer -->
<g id="edge48" class="edge">
<title>reflex&#45;&gt;quien_es_quien_view_components_footer</title><style>.edge>path:hover{stroke-width:8}</style>
<path fill="none" stroke="black" d="M91.56,-627.95C87.75,-607.52 87.09,-584.65 87.62,-564.85"/>
<polygon fill="#06f9f9" stroke="black" points="91.11,-565.23 88,-555.1 84.11,-564.95 91.11,-565.23"/>
</g>
<!-- reflex&#45;&gt;quien_es_quien_view_components_grid_personajes -->
<g id="edge49" class="edge">
<title>reflex&#45;&gt;quien_es_quien_view_components_grid_personajes</title><style>.edge>path:hover{stroke-width:8}</style>
<path fill="none" stroke="black" d="M577.56,-627.95C598,-576.7 628.91,-569.93 628.56,-514.75"/>
<path fill="none" stroke="black" d="M501.56,-734.66C543.41,-695.23 556.26,-683.36 577.56,-629.95"/>
<path fill="none" stroke="black" d="M628.56,-512.75C628.43,-492.23 628.4,-469.62 628.42,-450.04"/>
<polygon fill="#06f9f9" stroke="black" points="631.92,-450.11 628.43,-440.1 624.92,-450.1 631.92,-450.11"/>
</g>
<!-- reflex&#45;&gt;quien_es_quien_view_components_historial_mensajes -->
<g id="edge50" class="edge">
<title>reflex&#45;&gt;quien_es_quien_view_components_historial_mensajes</title><style>.edge>path:hover{stroke-width:8}</style>
<path fill="none" stroke="black" d="M984.56,-734.66C977.77,-633.74 983.89,-515.38 988.51,-449.79"/>
<polygon fill="#06f9f9" stroke="black" points="991.99,-450.3 989.22,-440.07 985.01,-449.79 991.99,-450.3"/>
</g>
<!-- reflex&#45;&gt;quien_es_quien_view_components_menu_principal -->
<g id="edge51" class="edge">
<title>reflex&#45;&gt;quien_es_quien_view_components_menu_principal</title><style>.edge>path:hover{stroke-width:8}</style>
<path fill="none" stroke="black" d="M180.56,-948.08C180.56,-930.19 180.56,-910.57 180.56,-893.21"/>
<polygon fill="#06f9f9" stroke="black" points="184.06,-893.67 180.56,-883.67 177.06,-893.67 184.06,-893.67"/>
</g>
<!-- reflex&#45;&gt;quien_es_quien_view_styles_tablero_personajes_estilos -->
<g id="edge52" class="edge">
<title>reflex&#45;&gt;quien_es_quien_view_styles_tablero_personajes_estilos</title><style>.edge>path:hover{stroke-width:8}</style>
<path fill="none" stroke="black" d="M984.56,-734.66C981.86,-704.1 1004.01,-680.42 1030.07,-663.37"/>
<polygon fill="#06f9f9" stroke="black" points="1031.83,-666.4 1038.51,-658.18 1028.16,-660.43 1031.83,-666.4"/>
</g>
<!-- reflex&#45;&gt;quien_es_quien_view_tablero_personajes -->
<g id="edge53" class="edge">
<title>reflex&#45;&gt;quien_es_quien_view_tablero_personajes</title><style>.edge>path:hover{stroke-width:8}</style>
<path fill="none" stroke="black" d="M539.56,-627.95C550.07,-508.56 479.19,-448.76 558.56,-358.96 659.64,-244.59 950.59,-435.22 895.56,-292.85"/>
<path fill="none" stroke="black" d="M180.56,-948.08C180.56,-928.87 197.61,-931.18 211.56,-917.97 228.69,-901.75 235.72,-900.3 250.56,-881.97 276.31,-850.16 265.58,-828.33 297.56,-802.77 372.01,-743.27 432.19,-802.02 501.56,-736.66"/>
<path fill="none" stroke="black" d="M501.56,-734.66C537.46,-700.58 537.44,-679.41 539.56,-629.95"/>
<path fill="none" stroke="black" d="M895.56,-290.85C876.26,-240.93 520.18,-210.83 357.47,-199.63"/>
<polygon fill="#06f9f9" stroke="black" points="357.83,-196.14 347.61,-198.96 357.35,-203.13 357.83,-196.14"/>
</g>
</g>
</svg>
